<svg width="465" height="39" viewBox="0 0 465 39" fill="none" xmlns="http://www.w3.org/2000/svg">
<path d="M13.6652 26.0116L20.3134 6.43025H26.9253L18.0247 31.8606H9.37837L0.259766 6.43025H6.87166L13.6652 26.0116Z" fill="white"/>
<path d="M51.0936 26.9562L51.5658 31.1341C47.388 31.8243 44.0094 32.1513 41.5027 32.1513C35.2904 32.1513 31.9844 30.1895 30.4586 26.9562C29.3687 24.6675 29.0055 22.4151 29.0055 19.2544C29.0055 16.0938 29.2961 13.9141 30.3496 11.5527C30.8582 10.3901 31.5485 9.44557 32.4567 8.68266C34.2369 7.19317 37.3248 6.13962 41.5027 6.13962C44.6633 6.13962 48.0419 6.46658 51.5658 7.12051L51.0936 11.2984C47.0974 10.6081 43.9004 10.2811 41.5027 10.2811C38.4147 10.2811 36.8162 11.262 36.1986 13.4418C35.7263 15.0403 35.581 16.6024 35.581 19.2544C35.6174 22.9963 35.908 25.1761 37.2522 26.6656C38.1241 27.5375 39.4682 28.0097 41.5027 28.0097C43.4281 28.0097 46.6251 27.6465 51.0936 26.9562Z" fill="white"/>
<path d="M55.9145 31.8606V6.43025H67.1766C73.3889 6.43025 77.0581 8.90063 77.0581 13.4054C77.0581 15.7305 76.2952 17.4743 74.7694 18.6005C76.9491 19.7994 78.039 21.6158 78.039 24.0499C78.039 29.9715 73.4615 31.8606 67.8668 31.8606H55.9145ZM67.1766 10.5718H62.3085V16.8567H67.5762C69.9013 16.8567 70.6278 16.0211 70.6278 13.4054C70.6278 12.2429 70.4099 11.48 69.9739 11.1167C69.538 10.7534 68.5934 10.5718 67.1766 10.5718ZM67.5762 20.9619H62.3085V27.7191H67.8668C70.6642 27.7191 71.6087 26.9925 71.6087 24.0499C71.6087 22.2334 70.8821 21.4342 69.8286 21.1435C68.9567 20.9256 68.5934 20.9619 67.5762 20.9619Z" fill="white"/>
<path d="M89.2994 17.8376V6.43025H101.724C110.516 6.43025 113.095 12.7515 113.095 18.8185C113.095 24.8854 110.552 31.8606 101.724 31.8606H89.2994V21.0346H86.2114V17.8376H89.2994ZM94.7851 21.0346V28.6273H101.724C105.757 28.6273 107.537 23.5413 107.537 18.8185C107.537 14.0594 105.829 9.66355 101.724 9.66355H94.7851V17.8376H101.47V21.0346H94.7851Z" fill="white"/>
<path d="M117.513 17.0384L116.932 13.9504C120.747 13.5508 123.471 13.3691 125.07 13.3691C130.265 13.3691 132.917 15.6578 132.917 19.4361V30.4438C131.863 30.7708 131.064 31.0251 130.446 31.2067C129.829 31.3884 128.775 31.57 127.213 31.8243C125.651 32.1149 124.161 32.2239 122.708 32.2239C118.349 32.2239 115.588 29.9715 115.588 26.4476C115.588 23.2506 117.986 21.1799 122.963 20.7439L127.467 20.3443V19.2181C127.467 17.329 126.777 16.4934 125.07 16.4934C123.726 16.4934 121.219 16.6751 117.513 17.0384ZM127.467 28.5184V23.4686L123.471 23.7956C121.691 23.9409 121.11 24.5948 121.11 26.4476C121.11 27.8644 121.764 29.027 122.89 29.136C124.125 29.136 125.651 28.918 127.467 28.5184ZM122.963 37.7459V34.4763H126.668V37.7459H122.963Z" fill="white"/>
<path d="M142.023 10.9351H136.574V7.12051H142.023V10.9351ZM142.023 31.8606H136.574V13.6961H142.023V31.8606Z" fill="white"/>
<path d="M159.103 6.43025H164.552V13.7687C165.969 13.4418 167.168 13.2601 168.222 13.2601C171.709 13.2601 173.998 14.023 175.306 15.6215C176.614 17.22 177.05 19.2544 177.05 22.3424V31.8243H171.491V22.3424C171.491 20.0173 171.273 18.4189 170.837 17.5833C170.401 16.7477 169.529 16.3481 168.222 16.3481C167.168 16.3481 165.933 16.5297 164.552 16.893V31.8243H159.103V6.43025Z" fill="white"/>
<path d="M186.774 10.8624H182.415L188.482 5.30405H190.807L196.91 10.8624H192.514L189.68 8.21038L186.774 10.8624ZM189.68 13.3691C195.893 13.3691 199.308 16.2754 199.308 22.4877C199.308 28.809 197.31 32.1876 189.68 32.1876C182.088 32.1513 179.944 29.2449 179.908 22.4151C179.908 16.0575 182.996 13.3691 189.68 13.3691ZM189.68 29.136C191.461 29.136 192.478 28.7727 193.095 27.6465C193.677 26.5203 193.858 25.1397 193.858 22.4877C193.858 18.0919 192.405 16.4208 189.68 16.4208C186.483 16.4208 185.357 17.4743 185.357 22.4151C185.357 25.1034 185.648 26.8835 186.193 27.7918C186.738 28.7 187.9 29.136 189.68 29.136ZM187.755 37.7459V34.4763H191.461V37.7459H187.755Z" fill="white"/>
<path d="M208.083 10.9351H202.633V7.12051H208.083V10.9351ZM208.083 31.8606H202.633V13.6961H208.083V31.8606Z" fill="white"/>
<path d="M242.237 8.71899H245.979V11.2257H242.31V31.7516C239.222 32.006 236.933 32.1149 235.443 32.1149C231.048 32.1149 228.105 31.3157 226.507 29.5719C224.872 27.8281 224.29 25.6847 224.29 22.3424C224.29 19.2544 224.726 17.2563 226.034 15.6215C227.306 14.023 229.595 13.2965 233.118 13.2965C234.172 13.2965 235.371 13.4418 236.788 13.7687V11.2257H232.501V8.71899H236.788V6.43025H242.237V8.71899ZM236.788 28.9906V16.893C235.407 16.5297 234.172 16.3481 233.118 16.3481C231.811 16.3481 230.939 16.7841 230.503 17.6196C230.03 18.4915 229.812 20.09 229.812 22.4151C229.812 24.8491 229.994 26.157 230.648 27.2832C231.302 28.4457 232.428 28.8816 234.426 28.9906C234.681 29.027 234.971 29.027 235.371 29.027C235.77 29.027 236.243 29.027 236.788 28.9906Z" fill="white"/>
<path d="M261.229 6.46658L255.307 1.52582H260.211L265.552 6.46658H261.229ZM254.253 10.8624H249.894L255.961 5.30405H258.286L264.389 10.8624H260.03L257.16 8.21038L254.253 10.8624ZM257.123 13.3691C263.336 13.3691 266.751 16.2754 266.751 22.4877C266.751 28.809 264.753 32.1876 257.123 32.1876C249.531 32.1513 247.387 29.2449 247.351 22.4151C247.351 16.0575 250.439 13.3691 257.123 13.3691ZM257.123 29.136C258.904 29.136 259.921 28.7727 260.538 27.6465C261.12 26.5203 261.301 25.1397 261.301 22.4877C261.301 18.0919 259.848 16.4208 257.123 16.4208C253.927 16.4208 252.8 17.4743 252.8 22.4151C252.8 25.1034 253.091 26.8835 253.636 27.7918C254.181 28.7 255.343 29.136 257.123 29.136Z" fill="white"/>
<path d="M275.38 31.8606H269.931V15.1856C273.164 13.9504 276.18 13.3328 279.049 13.3328C285.734 13.3328 288.459 16.3118 288.459 22.4151V31.8606H282.937V22.4151C282.937 17.8739 281.883 16.4208 279.049 16.4208C277.996 16.4208 276.761 16.6024 275.38 16.9657V31.8606Z" fill="white"/>
<path d="M291.704 36.7651L292.685 33.8224C296.245 34.658 298.861 35.0939 300.496 35.0939C303.075 35.0939 303.947 34.0041 303.947 31.2067C302.53 31.5337 301.295 31.7153 300.278 31.7153C296.79 31.7153 294.465 30.9524 293.193 29.3903C291.886 27.8281 291.45 25.939 291.45 23.1416C291.45 19.8357 292.031 17.6923 293.666 15.9122C295.264 14.1684 298.171 13.3691 302.566 13.3691C303.911 13.3691 306.163 13.4781 309.396 13.7324V29.1723C309.396 32.4419 308.96 34.8759 306.999 36.5471C305.691 37.528 303.547 38.1456 300.532 38.1456C298.025 38.1456 295.083 37.6733 291.704 36.7651ZM303.947 28.0824V16.4934C303.148 16.4571 302.53 16.4571 302.13 16.4571H301.84C299.66 16.4934 298.461 16.893 297.771 18.0556C297.081 19.2544 296.972 20.4896 296.972 23.1053C296.972 27.1742 297.589 28.6273 300.278 28.6273C301.331 28.6273 302.53 28.4457 303.947 28.0824Z" fill="white"/>
<path d="M342.248 28.0461L342.43 31.243C342.357 31.2794 342.067 31.3157 341.522 31.4247C340.977 31.5337 340.577 31.57 340.359 31.6063C340.141 31.6427 339.778 31.7153 339.269 31.8243C337.852 32.0786 336.981 32.1513 335.818 32.2239C331.858 32.3692 329.279 31.679 327.826 30.0442C326.336 28.4094 325.827 26.2296 325.827 22.7784C325.827 19.3271 326.336 17.1837 327.826 15.5125C329.279 13.8414 331.858 13.1875 335.818 13.3691C336.835 13.4054 339.051 13.6961 342.43 14.2773L342.357 16.9657C340.94 16.9657 337.162 16.3844 335.636 16.3844C333.856 16.3118 332.73 16.7114 332.185 17.5833C331.64 18.4552 331.35 20.199 331.35 22.7784C331.35 25.3941 331.64 27.1378 332.185 27.9734C332.73 28.8453 333.856 29.2449 335.636 29.1723C336.363 29.136 338.579 28.7727 342.248 28.0461Z" fill="white"/>
<path d="M356.623 1.67114L356.405 0.254303C357.095 0.0726573 357.785 0 358.439 0C360.946 0 361.781 0.799241 361.781 2.68835C361.781 4.03253 361.2 4.79544 360.001 5.01342V6.43025H357.822V3.52392H358.512C359.202 3.52392 359.456 3.41494 359.456 2.68835C359.456 1.88911 359.384 1.63481 358.512 1.63481C358.221 1.63481 358.548 1.67114 356.623 1.67114ZM351.391 10.8624H347.032L353.099 5.30405H355.387L361.527 10.8624H357.131L354.298 8.21038L351.391 10.8624ZM354.261 13.3691C360.474 13.3691 363.888 16.2754 363.888 22.4877C363.888 28.809 361.89 32.1876 354.261 32.1876C346.668 32.1513 344.525 29.2449 344.489 22.4151C344.489 16.0575 347.577 13.3691 354.261 13.3691ZM354.261 29.136C356.041 29.136 357.059 28.7727 357.676 27.6465C358.257 26.5203 358.439 25.1397 358.439 22.4877C358.439 18.0919 356.986 16.4208 354.261 16.4208C351.064 16.4208 349.938 17.4743 349.938 22.4151C349.938 25.1034 350.229 26.8835 350.774 27.7918C351.319 28.7 352.481 29.136 354.261 29.136Z" fill="white"/>
<path d="M397.594 8.71899H401.336V11.2257H397.666V31.7516C394.578 32.006 392.29 32.1149 390.8 32.1149C386.404 32.1149 383.462 31.3157 381.863 29.5719C380.228 27.8281 379.647 25.6847 379.647 22.3424C379.647 19.2544 380.083 17.2563 381.391 15.6215C382.662 14.023 384.951 13.2965 388.475 13.2965C389.529 13.2965 390.727 13.4418 392.144 13.7687V11.2257H387.857V8.71899H392.144V6.43025H397.594V8.71899ZM392.144 28.9906V16.893C390.764 16.5297 389.529 16.3481 388.475 16.3481C387.167 16.3481 386.295 16.7841 385.859 17.6196C385.387 18.4915 385.169 20.09 385.169 22.4151C385.169 24.8491 385.351 26.157 386.005 27.2832C386.659 28.4457 387.785 28.8816 389.783 28.9906C390.037 29.027 390.328 29.027 390.727 29.027C391.127 29.027 391.599 29.027 392.144 28.9906Z" fill="white"/>
<path d="M409.501 11.48H405.142L411.209 5.92165H413.534L419.637 11.48H415.277L412.407 8.82798L409.501 11.48ZM412.407 13.3691C418.62 13.3691 422.035 16.2754 422.035 22.4877C422.035 28.809 420.073 32.1876 412.407 32.1876C404.887 32.1513 402.635 29.2449 402.635 22.4151C402.635 16.0575 405.723 13.3691 412.407 13.3691ZM412.407 29.136C414.188 29.136 415.241 28.7727 415.859 27.6465C416.44 26.5203 416.585 25.1397 416.585 22.4877C416.585 18.0919 415.168 16.4208 412.407 16.4208C409.21 16.4208 408.084 17.4743 408.084 22.4151C408.084 25.1034 408.375 26.8835 408.92 27.7918C409.465 28.7 410.627 29.136 412.407 29.136Z" fill="white"/>
<path d="M430.524 31.8606H425.075V15.1856C428.308 13.9504 431.323 13.3328 434.193 13.3328C440.878 13.3328 443.603 16.3118 443.603 22.4151V31.8606H438.08V22.4151C438.08 17.8739 437.027 16.4208 434.193 16.4208C433.14 16.4208 431.905 16.6024 430.524 16.9657V31.8606Z" fill="white"/>
<path d="M446.848 36.7651L447.829 33.8224C451.389 34.658 454.005 35.0939 455.639 35.0939C458.219 35.0939 459.091 34.0041 459.091 31.2067C457.674 31.5337 456.439 31.7153 455.421 31.7153C451.934 31.7153 449.609 30.9524 448.337 29.3903C447.029 27.8281 446.593 25.939 446.593 23.1416C446.593 19.8357 447.175 17.6923 448.809 15.9122C450.408 14.1684 453.314 13.3691 457.71 13.3691C459.054 13.3691 461.307 13.4781 464.54 13.7324V29.1723C464.54 32.4419 464.104 34.8759 462.142 36.5471C460.834 37.528 458.691 38.1456 455.676 38.1456C453.169 38.1456 450.226 37.6733 446.848 36.7651ZM459.091 28.0824V16.4934C458.291 16.4571 457.674 16.4571 457.274 16.4571H456.984C454.804 16.4934 453.605 16.893 452.915 18.0556C452.224 19.2544 452.115 20.4896 452.115 23.1053C452.115 27.1742 452.733 28.6273 455.421 28.6273C456.475 28.6273 457.674 28.4457 459.091 28.0824Z" fill="white"/>
</svg>
