<svg width="8" height="21" viewBox="0 0 8 21" fill="none" xmlns="http://www.w3.org/2000/svg">
<g id="Component 4">
<path id="Vector" d="M1.46763 11.0579C1.39323 11.1323 1.35603 11.2179 1.35603 11.3146C1.35603 11.4113 1.39323 11.4969 1.46763 11.5713L6.66853 16.7722C6.74293 16.8466 6.8285 16.8838 6.92522 16.8838C7.02195 16.8838 7.10751 16.8466 7.18192 16.7722L7.73996 16.2141C7.81436 16.1397 7.85156 16.0542 7.85156 15.9574C7.85156 15.8607 7.81436 15.7752 7.73996 15.7008L3.35379 11.3146L7.73996 6.92843C7.81436 6.85403 7.85156 6.76846 7.85156 6.67173C7.85156 6.57501 7.81436 6.48944 7.73996 6.41504L7.18192 5.857C7.10751 5.7826 7.02195 5.7454 6.92522 5.7454C6.8285 5.7454 6.74293 5.7826 6.66853 5.857L1.46763 11.0579Z" fill="#074C31"/>
</g>
</svg>
