<svg width="8" height="21" viewBox="0 0 8 21" fill="none" xmlns="http://www.w3.org/2000/svg">
<g id="Component 4">
<path id="Vector" d="M6.53237 11.0579C6.60677 11.1323 6.64397 11.2179 6.64397 11.3146C6.64397 11.4113 6.60677 11.4969 6.53237 11.5713L1.33147 16.7722C1.25707 16.8466 1.1715 16.8838 1.07478 16.8838C0.978051 16.8838 0.892485 16.8466 0.81808 16.7722L0.260045 16.2141C0.18564 16.1397 0.148438 16.0542 0.148438 15.9574C0.148438 15.8607 0.18564 15.7752 0.260045 15.7008L4.64621 11.3146L0.260045 6.92843C0.18564 6.85403 0.148438 6.76846 0.148438 6.67173C0.148438 6.57501 0.18564 6.48944 0.260045 6.41504L0.81808 5.857C0.892485 5.7826 0.978051 5.7454 1.07478 5.7454C1.1715 5.7454 1.25707 5.7826 1.33147 5.857L6.53237 11.0579Z" fill="#074C31"/>
</g>
</svg>
