<svg width="23" height="18" viewBox="0 0 23 18" fill="none" xmlns="http://www.w3.org/2000/svg">
<g id="Component 4">
<path id="Vector" d="M0.4375 16.8204C0.4375 16.6943 0.463281 16.5711 0.514844 16.4508C0.566406 16.3305 0.638021 16.2245 0.729688 16.1329C0.821354 16.0412 0.927344 15.9696 1.04766 15.918C1.16797 15.8665 1.29115 15.8407 1.41719 15.8407H20.9766C21.1026 15.8407 21.2258 15.8665 21.3461 15.918C21.4664 15.9696 21.5724 16.0412 21.6641 16.1329C21.7557 16.2245 21.8273 16.3305 21.8789 16.4508C21.9305 16.5711 21.9563 16.6943 21.9563 16.8204C21.9563 16.9464 21.9305 17.0696 21.8789 17.1899C21.8273 17.3102 21.7557 17.4162 21.6641 17.5079C21.5724 17.5995 21.4664 17.6711 21.3461 17.7227C21.2258 17.7743 21.1026 17.8 20.9766 17.8H1.41719C1.29115 17.8 1.16797 17.7743 1.04766 17.7227C0.927344 17.6711 0.821354 17.5995 0.729688 17.5079C0.638021 17.4162 0.566406 17.3102 0.514844 17.1899C0.463281 17.0696 0.4375 16.9464 0.4375 16.8204ZM0.4375 9.00005C0.4375 8.87401 0.463281 8.75083 0.514844 8.63052C0.566406 8.51021 0.638021 8.40421 0.729688 8.31255C0.821354 8.22088 0.927344 8.14927 1.04766 8.0977C1.16797 8.04614 1.29115 8.02036 1.41719 8.02036H20.9766C21.1026 8.02036 21.2258 8.04614 21.3461 8.0977C21.4664 8.14927 21.5724 8.22088 21.6641 8.31255C21.7557 8.40421 21.8273 8.51021 21.8789 8.63052C21.9305 8.75083 21.9563 8.87401 21.9563 9.00005C21.9563 9.12609 21.9305 9.24927 21.8789 9.36958C21.8273 9.48989 21.7557 9.59588 21.6641 9.68755C21.5724 9.77921 21.4664 9.85083 21.3461 9.90239C21.2258 9.95395 21.1026 9.97974 20.9766 9.97974H1.41719C1.29115 9.97974 1.16797 9.95395 1.04766 9.90239C0.927344 9.85083 0.821354 9.77921 0.729688 9.68755C0.638021 9.59588 0.566406 9.48989 0.514844 9.36958C0.463281 9.24927 0.4375 9.12609 0.4375 9.00005ZM0.4375 1.17974C0.4375 1.05369 0.463281 0.930517 0.514844 0.810205C0.566406 0.689892 0.638021 0.583902 0.729688 0.492235C0.821354 0.40057 0.927344 0.328955 1.04766 0.277391C1.16797 0.22583 1.29115 0.200048 1.41719 0.200048H20.9766C21.1026 0.200048 21.2258 0.22583 21.3461 0.277391C21.4664 0.328955 21.5724 0.40057 21.6641 0.492235C21.7557 0.583902 21.8273 0.689892 21.8789 0.810205C21.9305 0.930517 21.9563 1.05369 21.9563 1.17974C21.9563 1.30578 21.9305 1.42896 21.8789 1.54927C21.8273 1.66958 21.7557 1.77557 21.6641 1.86724C21.5724 1.9589 21.4664 2.03052 21.3461 2.08208C21.2258 2.13364 21.1026 2.15942 20.9766 2.15942H1.41719C1.29115 2.15942 1.16797 2.13364 1.04766 2.08208C0.927344 2.03052 0.821354 1.9589 0.729688 1.86724C0.638021 1.77557 0.566406 1.66958 0.514844 1.54927C0.463281 1.42896 0.4375 1.30578 0.4375 1.17974Z" fill="#074C31"/>
</g>
</svg>
