<svg width="24" height="25" viewBox="0 0 24 25" fill="none" xmlns="http://www.w3.org/2000/svg">
<g id="Component 1">
<path id="Vector" d="M12 6.29932V20.8394" stroke="#A1C038" stroke-width="1.44"/>
<path id="Vector_2" d="M5.2793 9.31995L9.1193 10.2799" stroke="#074C31" stroke-width="1.44" stroke-linecap="round"/>
<path id="Vector_3" d="M18.7209 9.31995L14.8809 10.2799" stroke="#074C31" stroke-width="1.44" stroke-linecap="round"/>
<path id="Vector_4" d="M5.2793 13.1599L9.1193 14.1199" stroke="#074C31" stroke-width="1.44" stroke-linecap="round"/>
<path id="Vector_5" d="M18.7209 13.1599L14.8809 14.1199" stroke="#074C31" stroke-width="1.44" stroke-linecap="round"/>
<path id="Vector_6" d="M3.11969 16.1788V5.4788H1.67969V16.1788H3.11969ZM22.3197 16.1788V5.41677H20.8797V16.1788H22.3197ZM19.7334 2.85838C18.6405 2.89645 17.2121 3.01013 16.1132 3.3391L16.5262 4.7186C17.4374 4.44582 18.7093 4.33492 19.7835 4.29751L19.7334 2.85838ZM16.1132 3.3391C15.158 3.62508 14.0835 4.18364 13.246 4.66839L13.9672 5.91471C14.7837 5.4422 15.7388 4.95434 16.5262 4.7186L16.1132 3.3391ZM4.25862 4.35144C5.18597 4.40844 6.23626 4.51927 7.01598 4.72503L7.38339 3.33268C6.46102 3.08928 5.29425 2.97237 4.34696 2.91416L4.25862 4.35144ZM7.01598 4.72503C7.93962 4.96875 9.07635 5.50199 10.0141 5.99784L10.6872 4.72485C9.73159 4.21952 8.47424 3.62054 7.38339 3.33268L7.01598 4.72503ZM13.9009 20.5828C14.8522 20.0756 16.0305 19.5165 16.9834 19.2651L16.6159 17.8728C15.4925 18.1692 14.1911 18.7962 13.2235 19.312L13.9009 20.5828ZM16.9834 19.2651C17.7542 19.0617 18.79 18.951 19.7104 18.8934L19.6205 17.4563C18.6796 17.5151 17.5284 17.632 16.6159 17.8728L16.9834 19.2651ZM10.7759 19.312C9.8083 18.7962 8.50692 18.1692 7.38339 17.8728L7.01598 19.2651C7.96884 19.5165 9.14714 20.0756 10.0985 20.5828L10.7759 19.312ZM7.38339 17.8728C6.47097 17.632 5.31978 17.5151 4.3789 17.4563L4.28901 18.8934C5.20942 18.951 6.24512 19.0617 7.01598 19.2651L7.38339 17.8728ZM20.8797 16.1788C20.8797 16.8371 20.3341 17.4116 19.6205 17.4563L19.7104 18.8934C21.1256 18.8049 22.3197 17.6535 22.3197 16.1788H20.8797ZM22.3197 5.41677C22.3197 4.01199 21.201 2.80725 19.7334 2.85838L19.7835 4.29751C20.3737 4.27694 20.8797 4.76245 20.8797 5.41677H22.3197ZM1.67969 16.1788C1.67969 17.6535 2.87372 18.8049 4.28901 18.8934L4.3789 17.4563C3.66526 17.4116 3.11969 16.8371 3.11969 16.1788H1.67969ZM13.2235 19.312C12.4629 19.7174 11.5365 19.7174 10.7759 19.312L10.0985 20.5828C11.2825 21.2139 12.7169 21.2139 13.9009 20.5828L13.2235 19.312ZM13.246 4.66839C12.4606 5.12291 11.4829 5.14558 10.6872 4.72485L10.0141 5.99784C11.2546 6.65381 12.759 6.61394 13.9672 5.91471L13.246 4.66839ZM3.11969 5.4788C3.11969 4.80949 3.65002 4.31404 4.25862 4.35144L4.34696 2.91416C2.85105 2.82222 1.67969 4.0396 1.67969 5.4788H3.11969Z" fill="#A1C038"/>
</g>
</svg>
