<svg width="25" height="25" viewBox="0 0 25 25" fill="none" xmlns="http://www.w3.org/2000/svg">
<g id="Component 1">
<path id="Vector" d="M19.9826 16.0399H8.46257C7.5698 16.0399 7.12341 16.0399 6.75717 16.138C5.7633 16.4043 4.98701 17.1807 4.7207 18.1745" stroke="#A1C038" stroke-width="1.44"/>
<path id="Vector_2" d="M8.56055 7.3999H16.2405" stroke="#074C31" stroke-width="1.44" stroke-linecap="round"/>
<path id="Vector_3" d="M8.56055 10.76H13.3605" stroke="#074C31" stroke-width="1.44" stroke-linecap="round"/>
<path id="Vector_4" d="M19.6005 18.9199H8.56055" stroke="#074C31" stroke-width="1.44" stroke-linecap="round"/>
<path id="Vector_5" d="M4.7207 8.35998C4.7207 5.64468 4.7207 4.28704 5.56424 3.44351C6.40777 2.59998 7.76541 2.59998 10.4807 2.59998H14.3207C17.036 2.59998 18.3936 2.59998 19.2372 3.44351C20.0807 4.28704 20.0807 5.64468 20.0807 8.35998V16.04C20.0807 18.7552 20.0807 20.1129 19.2372 20.9564C18.3936 21.8 17.036 21.8 14.3207 21.8H10.4807C7.76541 21.8 6.40777 21.8 5.56424 20.9564C4.7207 20.1129 4.7207 18.7552 4.7207 16.04V8.35998Z" stroke="#A1C038" stroke-width="1.44"/>
</g>
</svg>
