<svg width="25" height="25" viewBox="0 0 25 25" fill="none" xmlns="http://www.w3.org/2000/svg">
<g id="Component 1">
<path id="Vector" d="M20.383 16.0399H8.86296C7.97019 16.0399 7.5238 16.0399 7.15756 16.138C6.16369 16.4043 5.3874 17.1807 5.12109 18.1745" stroke="#A1C038" stroke-width="1.44"/>
<path id="Vector_2" d="M8.96094 7.3999H16.6409" stroke="#074C31" stroke-width="1.44" stroke-linecap="round"/>
<path id="Vector_3" d="M8.96094 10.76H13.7609" stroke="#074C31" stroke-width="1.44" stroke-linecap="round"/>
<path id="Vector_4" d="M20.0009 18.9199H8.96094" stroke="#074C31" stroke-width="1.44" stroke-linecap="round"/>
<path id="Vector_5" d="M5.12109 8.35998C5.12109 5.64468 5.12109 4.28704 5.96463 3.44351C6.80816 2.59998 8.1658 2.59998 10.8811 2.59998H14.7211C17.4364 2.59998 18.794 2.59998 19.6375 3.44351C20.4811 4.28704 20.4811 5.64468 20.4811 8.35998V16.04C20.4811 18.7552 20.4811 20.1129 19.6375 20.9564C18.794 21.8 17.4364 21.8 14.7211 21.8H10.8811C8.1658 21.8 6.80816 21.8 5.96463 20.9564C5.12109 20.1129 5.12109 18.7552 5.12109 16.04V8.35998Z" stroke="#A1C038" stroke-width="1.44"/>
</g>
</svg>
