<svg width="24" height="25" viewBox="0 0 24 25" fill="none" xmlns="http://www.w3.org/2000/svg">
<g id="Clip path group">
<mask id="mask0_332_211" style="mask-type:luminance" maskUnits="userSpaceOnUse" x="0" y="0" width="24" height="25">
<g id="clip0_8168_407008-tgmw9vf9u">
<path id="Vector" d="M24 0.800049H0V24.8H24V0.800049Z" fill="white"/>
</g>
</mask>
<g mask="url(#mask0_332_211)">
<g id="Group">
<path id="Vector_2" d="M12 24.8C18.6274 24.8 24 19.4274 24 12.8C24 6.17263 18.6274 0.800049 12 0.800049C5.37258 0.800049 0 6.17263 0 12.8C0 19.4274 5.37258 24.8 12 24.8Z" fill="#F0F0F0"/>
<path id="Vector_3" d="M2.4813 5.49292C1.53869 6.71931 0.827922 8.13283 0.414062 9.6684H6.65678L2.4813 5.49292Z" fill="#0052B4"/>
<path id="Vector_4" d="M23.5865 9.66885C23.1726 8.13332 22.4618 6.7198 21.5191 5.49341L17.3438 9.66885H23.5865Z" fill="#0052B4"/>
<path id="Vector_5" d="M0.414062 15.9304C0.827969 17.4659 1.53874 18.8794 2.4813 20.1058L6.65665 15.9304H0.414062Z" fill="#0052B4"/>
<path id="Vector_6" d="M19.3063 3.27993C18.0799 2.33732 16.6665 1.62655 15.1309 1.21265V7.45532L19.3063 3.27993Z" fill="#0052B4"/>
<path id="Vector_7" d="M4.69336 22.3176C5.91975 23.2602 7.33327 23.971 8.8688 24.3849V18.1423L4.69336 22.3176Z" fill="#0052B4"/>
<path id="Vector_8" d="M8.86875 1.21265C7.33322 1.62655 5.9197 2.33732 4.69336 3.27988L8.86875 7.45527V1.21265Z" fill="#0052B4"/>
<path id="Vector_9" d="M15.1309 24.3849C16.6664 23.971 18.0799 23.2602 19.3063 22.3177L15.1309 18.1423V24.3849Z" fill="#0052B4"/>
<path id="Vector_10" d="M17.3438 15.9304L21.5191 20.1058C22.4618 18.8795 23.1726 17.4659 23.5865 15.9304H17.3438Z" fill="#0052B4"/>
<path id="Vector_11" d="M23.8984 11.2348H13.5653V0.901627C13.0529 0.834924 12.5305 0.800049 12 0.800049C11.4694 0.800049 10.9471 0.834924 10.4348 0.901627V11.2347H0.101578C0.034875 11.7471 0 12.2695 0 12.8C0 13.3306 0.034875 13.8529 0.101578 14.3652H10.4347V24.6984C10.9471 24.7651 11.4694 24.8 12 24.8C12.5305 24.8 13.0529 24.7652 13.5652 24.6984V14.3653H23.8984C23.9651 13.8529 24 13.3306 24 12.8C24 12.2695 23.9651 11.7471 23.8984 11.2348Z" fill="#D80027"/>
<path id="Vector_12" d="M15.1309 15.9315L20.4857 21.2863C20.732 21.0401 20.9669 20.7827 21.1911 20.5159L16.6066 15.9314L15.1309 15.9315Z" fill="#D80027"/>
<path id="Vector_13" d="M8.87048 15.9314L3.51562 21.2862C3.76181 21.5325 4.0192 21.7674 4.28601 21.9916L8.87048 17.407V15.9314Z" fill="#D80027"/>
<path id="Vector_14" d="M8.86878 9.66916L3.51397 4.31421C3.26769 4.5604 3.03275 4.81779 2.80859 5.0846L7.39311 9.66912L8.86878 9.66916Z" fill="#D80027"/>
<path id="Vector_15" d="M15.1309 9.67034L20.4857 4.31544C20.2395 4.06916 19.9822 3.83422 19.7153 3.61011L15.1309 8.19462V9.67034Z" fill="#D80027"/>
</g>
</g>
</g>
</svg>
