<svg width="25" height="24" viewBox="0 0 25 24" fill="none" xmlns="http://www.w3.org/2000/svg">
<g id="Home">
<path id="Vector" d="M8.55988 22H16.9206C19.2293 22 21.1009 20.214 21.1009 18.0108V13.133C21.1009 12.4248 21.3958 11.7456 21.9205 11.2448C23.1364 10.0845 22.9784 8.16205 21.5877 7.19691L15.199 2.763C13.7332 1.74567 11.7473 1.74567 10.2815 2.763L3.89274 7.19692C2.5021 8.16205 2.34404 10.0845 3.55992 11.2448C4.08471 11.7456 4.37953 12.4248 4.37953 13.133V18.0108C4.37953 20.214 6.25114 22 8.55988 22Z" stroke="#A1C038" stroke-width="1.5"/>
<path id="Vector_2" d="M14.7402 16C14.7402 17.1046 13.8448 18 12.7402 18C11.6357 18 10.7402 17.1046 10.7402 16C10.7402 14.8954 11.6357 14 12.7402 14C13.8448 14 14.7402 14.8954 14.7402 16Z" stroke="#074C31" stroke-width="1.5"/>
</g>
</svg>
