<svg width="21" height="21" viewBox="0 0 21 21" fill="none" xmlns="http://www.w3.org/2000/svg">
<g id="Component 1">
<path id="Vector" d="M10.099 19.1582C8.32718 19.1582 6.59517 18.6328 5.12198 17.6485C3.64879 16.6642 2.50058 15.2651 1.82254 13.6282C1.14451 11.9912 0.967101 10.19 1.31276 8.45223C1.65842 6.71449 2.51162 5.11826 3.76447 3.86542C5.01731 2.61257 6.61353 1.75937 8.35128 1.41371C10.089 1.06805 11.8902 1.24546 13.5272 1.92349C15.1641 2.60153 16.5632 3.74974 17.5475 5.22293C18.5319 6.69612 19.0573 8.42813 19.0573 10.1999C19.0551 12.5752 18.1105 14.8524 16.431 16.532C14.7515 18.2115 12.4742 19.1561 10.099 19.1582ZM10.099 2.49158C8.57438 2.49158 7.08407 2.94367 5.81644 3.79067C4.54882 4.63767 3.56082 5.84155 2.97739 7.25006C2.39397 8.65858 2.24132 10.2085 2.53874 11.7037C2.83617 13.199 3.57032 14.5725 4.64835 15.6505C5.72638 16.7286 7.09988 17.4627 8.59513 17.7602C10.0904 18.0576 11.6403 17.9049 13.0488 17.3215C14.4573 16.7381 15.6612 15.7501 16.5082 14.4824C17.3552 13.2148 17.8073 11.7245 17.8073 10.1999C17.8051 8.15621 16.9923 6.19685 15.5471 4.75174C14.102 3.30662 12.1426 2.49379 10.099 2.49158Z" fill="white"/>
<path id="Vector_2" d="M10.0996 14.9916C9.93453 14.9894 9.77678 14.9229 9.66003 14.8062C9.54328 14.6894 9.47678 14.5317 9.47461 14.3666V9.36658C9.47461 9.20083 9.54044 9.04183 9.65769 8.92466C9.77486 8.80741 9.93386 8.74158 10.0996 8.74158C10.2654 8.74158 10.4244 8.80741 10.5415 8.92466C10.6588 9.04183 10.7246 9.20083 10.7246 9.36658V14.3666C10.7224 14.5317 10.6559 14.6894 10.5392 14.8062C10.4224 14.9229 10.2647 14.9894 10.0996 14.9916Z" fill="white"/>
<path id="Vector_3" d="M10.099 7.69999C10.5592 7.69999 10.9323 7.32689 10.9323 6.86666C10.9323 6.40643 10.5592 6.03333 10.099 6.03333C9.63871 6.03333 9.26562 6.40643 9.26562 6.86666C9.26562 7.32689 9.63871 7.69999 10.099 7.69999Z" fill="white"/>
</g>
</svg>
