<svg width="25" height="24" viewBox="0 0 25 24" fill="none" xmlns="http://www.w3.org/2000/svg">
<g id="Component 6" clip-path="url(#clip0_332_1903)">
<path id="Vector" fill-rule="evenodd" clip-rule="evenodd" d="M7.69141 5.25C7.69141 5.05109 7.77043 4.86032 7.91108 4.71967C8.05173 4.57902 8.2425 4.5 8.44141 4.5H20.4414C20.6403 4.5 20.8311 4.57902 20.9717 4.71967C21.1124 4.86032 21.1914 5.05109 21.1914 5.25V18.75C21.1914 18.9489 21.1124 19.1397 20.9717 19.2803C20.8311 19.421 20.6403 19.5 20.4414 19.5H8.44141C8.2425 19.5 8.05173 19.421 7.91108 19.2803C7.77043 19.1397 7.69141 18.9489 7.69141 18.75V15.75C7.69141 15.5511 7.61239 15.3603 7.47174 15.2197C7.33109 15.079 7.14032 15 6.94141 15C6.7425 15 6.55173 15.079 6.41108 15.2197C6.27043 15.3603 6.19141 15.5511 6.19141 15.75V18.75C6.19141 19.3467 6.42846 19.919 6.85042 20.341C7.27238 20.7629 7.84467 21 8.44141 21H20.4414C21.0381 21 21.6104 20.7629 22.0324 20.341C22.4543 19.919 22.6914 19.3467 22.6914 18.75V5.25C22.6914 4.65326 22.4543 4.08097 22.0324 3.65901C21.6104 3.23705 21.0381 3 20.4414 3H8.44141C7.84467 3 7.27238 3.23705 6.85042 3.65901C6.42846 4.08097 6.19141 4.65326 6.19141 5.25V8.25C6.19141 8.44891 6.27043 8.63968 6.41108 8.78033C6.55173 8.92098 6.7425 9 6.94141 9C7.14032 9 7.33109 8.92098 7.47174 8.78033C7.61239 8.63968 7.69141 8.44891 7.69141 8.25V5.25Z" fill="black" fill-opacity="0.8"/>
<path id="Vector_2" fill-rule="evenodd" clip-rule="evenodd" d="M16.4724 12.53C16.5422 12.4603 16.5977 12.3776 16.6355 12.2864C16.6733 12.1953 16.6927 12.0976 16.6927 11.999C16.6927 11.9003 16.6733 11.8027 16.6355 11.7115C16.5977 11.6204 16.5422 11.5377 16.4724 11.468L11.9724 6.96799C11.9027 6.89826 11.8199 6.84295 11.7288 6.80521C11.6377 6.76747 11.54 6.74805 11.4414 6.74805C11.3428 6.74805 11.2451 6.76747 11.154 6.80521C11.0629 6.84295 10.9801 6.89826 10.9104 6.96799C10.8407 7.03773 10.7854 7.12051 10.7476 7.21162C10.7099 7.30273 10.6905 7.40038 10.6905 7.49899C10.6905 7.59761 10.7099 7.69526 10.7476 7.78637C10.7854 7.87748 10.8407 7.96026 10.9104 8.02999L14.1309 11.249H0.941406C0.742494 11.249 0.551728 11.328 0.411076 11.4687C0.270424 11.6093 0.191406 11.8001 0.191406 11.999C0.191406 12.1979 0.270424 12.3887 0.411076 12.5293C0.551728 12.67 0.742494 12.749 0.941406 12.749H14.1309L10.9104 15.968C10.8407 16.0377 10.7854 16.1205 10.7476 16.2116C10.7099 16.3027 10.6905 16.4004 10.6905 16.499C10.6905 16.5976 10.7099 16.6953 10.7476 16.7864C10.7854 16.8775 10.8407 16.9603 10.9104 17.03C10.9801 17.0997 11.0629 17.155 11.154 17.1928C11.2451 17.2305 11.3428 17.2499 11.4414 17.2499C11.54 17.2499 11.6377 17.2305 11.7288 17.1928C11.8199 17.155 11.9027 17.0997 11.9724 17.03L16.4724 12.53Z" fill="black" fill-opacity="0.8"/>
</g>
<defs>
<clipPath id="clip0_332_1903">
<rect width="24" height="24" fill="white" transform="translate(0.191406)"/>
</clipPath>
</defs>
</svg>
