<svg width="19" height="25" viewBox="0 0 19 25" fill="none" xmlns="http://www.w3.org/2000/svg">
<g id="Component 4">
<path id="Vector" d="M17.3476 15.8168C16.7372 15.8168 16.1412 15.7708 15.5596 15.6786C14.978 15.5865 14.4165 15.4483 13.8752 15.264C13.7025 15.2064 13.5268 15.2007 13.3483 15.2468C13.1698 15.2928 13.0115 15.3792 12.8733 15.5059L11.3357 17.4407C10.6447 17.1067 9.96523 16.7036 9.29725 16.2315C8.64078 15.7708 8.01887 15.2525 7.4315 14.6767C6.84414 14.1008 6.3086 13.4789 5.82489 12.8109C5.32966 12.1429 4.9093 11.4519 4.56379 10.7379L6.48136 9.09672C6.61956 8.95852 6.70594 8.80016 6.74049 8.62164C6.77504 8.44313 6.76928 8.2675 6.72321 8.09475C6.53894 7.55345 6.40074 6.992 6.3086 6.41039C6.21647 5.82879 6.1704 5.23279 6.1704 4.62239C6.1704 4.3575 6.07539 4.13004 5.88536 3.94001C5.69533 3.74998 5.46787 3.65497 5.20298 3.65497H1.79973C1.53484 3.65497 1.27283 3.72407 1.0137 3.86227C0.754565 4.00048 0.625 4.25385 0.625 4.62239C0.625 6.91426 1.0684 9.06793 1.95521 11.0834C2.84201 13.1104 4.04553 14.884 5.56576 16.4042C7.086 17.9244 8.8596 19.128 10.8866 20.0148C12.9136 20.9016 15.0672 21.345 17.3476 21.345C17.6931 21.345 17.9407 21.2183 18.0904 20.9649C18.2401 20.7115 18.315 20.4524 18.315 20.1875V16.8015C18.315 16.5367 18.22 16.3063 18.03 16.1105C17.8399 15.9147 17.6125 15.8168 17.3476 15.8168Z" fill="black"/>
</g>
</svg>
