<svg width="16" height="20" viewBox="0 0 16 20" fill="none" xmlns="http://www.w3.org/2000/svg">
<g id="Iconsax/Bulk/profile2user">
<path id="Vector" d="M8.00117 1.80029C5.90517 1.80029 4.20117 3.50429 4.20117 5.60029C4.20117 7.65629 5.80917 9.32029 7.90517 9.39229C7.96917 9.38429 8.03317 9.38429 8.08117 9.39229H8.13717C9.12066 9.35948 10.0528 8.94548 10.7366 8.23782C11.4204 7.53016 11.8021 6.58432 11.8012 5.60029C11.8012 3.50429 10.0972 1.80029 8.00117 1.80029Z" fill="#DEF2D3"/>
<path id="Vector_2" d="M12.0651 11.5193C9.83314 10.0313 6.19314 10.0313 3.94514 11.5193C2.92914 12.1993 2.36914 13.1193 2.36914 14.1033C2.36914 15.0873 2.92914 15.9993 3.93714 16.6713C5.05714 17.4233 6.52914 17.7993 8.00114 17.7993C9.47314 17.7993 10.9451 17.4233 12.0651 16.6713C13.0731 15.9913 13.6331 15.0793 13.6331 14.0873C13.6251 13.1033 13.0731 12.1913 12.0651 11.5193Z" fill="#A6CC90"/>
</g>
</svg>
