<svg width="21" height="21" viewBox="0 0 21 21" fill="none" xmlns="http://www.w3.org/2000/svg">
<g id="Component 1">
<path id="Vector" d="M10.1004 17.8917C8.57067 17.8506 7.0717 17.4524 5.72319 16.729C4.37467 16.0055 3.21398 14.9768 2.33375 13.725C1.9341 13.3118 1.62243 12.8218 1.4176 12.2847C1.21278 11.7475 1.11905 11.1744 1.14209 10.6C1.11905 10.0256 1.21278 9.45252 1.4176 8.91537C1.62243 8.37823 1.9341 7.88823 2.33375 7.47502C3.21398 6.22319 4.37467 5.19449 5.72319 4.47104C7.0717 3.74759 8.57067 3.34943 10.1004 3.30835C11.6302 3.34943 13.1292 3.74759 14.4777 4.47104C15.8262 5.19449 16.9868 6.22319 17.8671 7.47502C18.2668 7.88823 18.5784 8.37823 18.7833 8.91537C18.9881 9.45252 19.0818 10.0256 19.0588 10.6C19.0818 11.1744 18.9881 11.7475 18.7833 12.2847C18.5784 12.8218 18.2668 13.3118 17.8671 13.725C16.9868 14.9768 15.8262 16.0055 14.4777 16.729C13.1292 17.4524 11.6302 17.8506 10.1004 17.8917ZM3.32542 12.9667C4.09145 14.0636 5.1026 14.9668 6.27865 15.6048C7.45468 16.2427 8.76325 16.5978 10.1004 16.6417C11.4376 16.5978 12.7462 16.2427 13.9222 15.6048C15.0983 14.9668 16.1094 14.0636 16.8754 12.9667C17.1908 12.6616 17.4373 12.2926 17.5983 11.8844C17.7593 11.4762 17.8311 11.0383 17.8088 10.6C17.8311 10.1618 17.7593 9.72385 17.5983 9.3156C17.4373 8.90742 17.1908 8.5384 16.8754 8.23335C16.1094 7.13643 15.0983 6.23317 13.9222 5.59524C12.7462 4.95732 11.4376 4.60229 10.1004 4.55835C8.76325 4.60229 7.45468 4.95732 6.27865 5.59524C5.1026 6.23317 4.09145 7.13643 3.32542 8.23335C3.01 8.5384 2.76351 8.90742 2.60253 9.3156C2.44155 9.72385 2.36979 10.1618 2.39209 10.6C2.36979 11.0383 2.44155 11.4762 2.60253 11.8844C2.76351 12.2926 3.01 12.6616 3.32542 12.9667Z" fill="white"/>
<path id="Vector_2" d="M10.0996 13.725C9.48153 13.725 8.87736 13.5417 8.36345 13.1983C7.84955 12.855 7.44901 12.3669 7.21248 11.7959C6.97597 11.2248 6.91408 10.5965 7.03466 9.99031C7.15523 9.38414 7.45286 8.82731 7.8899 8.39027C8.32694 7.95322 8.88378 7.6556 9.48994 7.53502C10.0961 7.41444 10.7244 7.47633 11.2955 7.71285C11.8665 7.94938 12.3546 8.34992 12.6979 8.86382C13.0414 9.37772 13.2246 9.98189 13.2246 10.6C13.2246 11.4288 12.8954 12.2236 12.3094 12.8097C11.7233 13.3957 10.9284 13.725 10.0996 13.725ZM10.0996 8.72498C9.72878 8.72498 9.36628 8.83494 9.05794 9.04098C8.74961 9.24698 8.50928 9.53981 8.36733 9.88247C8.22543 10.2251 8.18829 10.6021 8.26063 10.9658C8.33298 11.3295 8.51153 11.6636 8.77378 11.9258C9.03603 12.1881 9.37011 12.3666 9.73378 12.439C10.0975 12.5113 10.4745 12.4741 10.8171 12.3322C11.1598 12.1903 11.4526 11.95 11.6586 11.6416C11.8646 11.3333 11.9746 10.9708 11.9746 10.6C11.9746 10.1027 11.777 9.62581 11.4254 9.27414C11.0738 8.92253 10.5969 8.72498 10.0996 8.72498Z" fill="white"/>
</g>
</svg>
