<svg width="25" height="24" viewBox="0 0 25 24" fill="none" xmlns="http://www.w3.org/2000/svg">
<g id="Component 1">
<path id="Vector" d="M12.7406 21.5999C18.0426 21.5999 22.3406 17.3018 22.3406 11.9999C22.3406 6.69797 18.0426 2.3999 12.7406 2.3999C7.43869 2.3999 3.14062 6.69797 3.14062 11.9999C3.14062 17.3018 7.43869 21.5999 12.7406 21.5999Z" stroke="#A1C038" stroke-width="1.44"/>
<path id="Vector_2" d="M10.9395 8.99995C10.9395 8.00584 11.7454 7.19995 12.7395 7.19995C13.7335 7.19995 14.5395 8.00584 14.5395 8.99995C14.5395 9.6599 14.1843 10.2369 13.6547 10.5503C13.1983 10.8202 12.7395 11.2297 12.7395 11.76V12.96" stroke="#074C31" stroke-width="1.44" stroke-linecap="round"/>
<path id="Vector_3" d="M12.7393 16.7999C13.2695 16.7999 13.6993 16.3701 13.6993 15.8399C13.6993 15.3097 13.2695 14.8799 12.7393 14.8799C12.2091 14.8799 11.7793 15.3097 11.7793 15.8399C11.7793 16.3701 12.2091 16.7999 12.7393 16.7999Z" fill="#074C31"/>
</g>
</svg>
