<svg width="21" height="20" viewBox="0 0 21 20" fill="none" xmlns="http://www.w3.org/2000/svg">
<g id="Component 1">
<path id="Vector" d="M2.95804 10.625L2.51638 11.0667C2.63356 11.1838 2.79242 11.2495 2.95804 11.2495C3.12367 11.2495 3.28252 11.1838 3.39971 11.0667L2.95804 10.625ZM4.79971 9.68334C4.91675 9.56617 4.98249 9.40734 4.98249 9.24167C4.98249 9.07609 4.91675 8.91726 4.79971 8.80001C4.68252 8.68301 4.52367 8.61726 4.35804 8.61726C4.19242 8.61726 4.03356 8.68301 3.91638 8.80001L4.79971 9.68334ZM1.99971 8.79167C1.88252 8.67467 1.72367 8.60892 1.55804 8.60892C1.39242 8.60892 1.23356 8.67467 1.11638 8.79167C0.999335 8.90892 0.933594 9.06776 0.933594 9.23334C0.933594 9.39901 0.999335 9.55784 1.11638 9.67501L1.99971 8.79167ZM15.408 5.95003C15.4926 6.08629 15.6269 6.18426 15.7825 6.22315C15.938 6.26205 16.1026 6.23881 16.2414 6.15837C16.3746 6.0711 16.4695 5.93625 16.5067 5.78137C16.5439 5.62649 16.5205 5.46327 16.4414 5.32503L15.408 5.95003ZM9.95804 1.6667C8.96038 1.66231 7.97165 1.85461 7.04837 2.2326C6.12509 2.61059 5.28536 3.16686 4.5772 3.8696C3.86904 4.57234 3.30634 5.40777 2.92127 6.32812C2.5362 7.24847 2.33632 8.23571 2.33304 9.23334H3.58304C3.59186 7.55068 4.2682 5.9403 5.46351 4.75593C6.65882 3.57156 8.27535 2.91005 9.95804 2.9167V1.6667ZM2.33304 9.23334V10.625H3.58304V9.23334H2.33304ZM3.43304 11.0667L4.83304 9.68334L3.91638 8.79167L2.51638 10.1833L3.43304 11.0667ZM3.43304 10.1833L1.99971 8.79167L1.11638 9.68334L2.51638 11.0667L3.43304 10.1833ZM16.4664 5.30003C15.7844 4.18695 14.8275 3.26807 13.6876 2.63176C12.5478 1.99545 11.2635 1.66311 9.95804 1.6667V2.9167C11.0498 2.91549 12.1236 3.19357 13.0775 3.72451C14.0315 4.25544 14.8337 5.02157 15.408 5.95003L16.4664 5.30003Z" fill="white"/>
<path id="Vector_2" d="M16.8166 8.95834L17.2582 8.51668C17.2009 8.45901 17.1327 8.41318 17.0576 8.38193C16.9826 8.35068 16.9021 8.33459 16.8207 8.33459C16.7394 8.33459 16.6589 8.35068 16.5838 8.38193C16.5087 8.41318 16.4406 8.45901 16.3832 8.51668L16.8166 8.95834ZM14.9749 9.90001C14.8579 10.0172 14.7921 10.1761 14.7921 10.3417C14.7921 10.5073 14.8579 10.6662 14.9749 10.7833C15.0921 10.9004 15.251 10.9662 15.4166 10.9662C15.5822 10.9662 15.7411 10.9004 15.8582 10.7833L14.9749 9.90001ZM17.7832 10.8333C17.9004 10.9504 18.0593 11.0162 18.2249 11.0162C18.3906 11.0162 18.5494 10.9504 18.6666 10.8333C18.7836 10.7162 18.8493 10.5573 18.8493 10.3917C18.8493 10.2261 18.7836 10.0672 18.6666 9.95001L17.7832 10.8333ZM4.32489 13.6333C4.28389 13.56 4.2285 13.4956 4.16205 13.4442C4.0956 13.3927 4.01944 13.3551 3.93814 13.3338C3.85684 13.3124 3.77207 13.3077 3.68889 13.3198C3.60572 13.3319 3.52584 13.3608 3.45407 13.4045C3.38228 13.4483 3.32006 13.506 3.27113 13.5743C3.22218 13.6428 3.18754 13.7203 3.16926 13.8023C3.15098 13.8843 3.14943 13.9693 3.16472 14.0519C3.18 14.1345 3.21181 14.2133 3.25823 14.2833L4.32489 13.6333ZM9.79156 17.9167C10.7907 17.9222 11.7811 17.7308 12.7063 17.3535C13.6316 16.9763 14.4733 16.4204 15.1837 15.7178C15.8941 15.0151 16.4591 14.1794 16.8465 13.2584C17.2339 12.3374 17.4361 11.3492 17.4416 10.35H16.1916C16.1861 11.185 16.0162 12.0108 15.6916 12.7801C15.3671 13.5494 14.8941 14.2473 14.2998 14.8338C13.7056 15.4204 13.0015 15.8842 12.228 16.1987C11.4545 16.5132 10.6266 16.6722 9.79156 16.6667V17.9167ZM17.4416 10.35V8.95834H16.1916V10.35H17.4416ZM16.3832 8.51668L14.9749 9.90001L15.8082 10.7917L17.2166 9.40001L16.3832 8.51668ZM16.3832 9.40001L17.7832 10.8333L18.6666 9.94168L17.2582 8.55834L16.3832 9.40001ZM3.25823 14.2833C3.94545 15.3973 4.90698 16.3163 6.05086 16.9524C7.19473 17.5885 8.48273 17.9206 9.79156 17.9167V16.6667C8.69731 16.6692 7.62063 16.3918 6.66382 15.8608C5.707 15.3299 4.90185 14.5631 4.32489 13.6333L3.25823 14.2833Z" fill="white"/>
</g>
</svg>
