<svg width="24" height="25" viewBox="0 0 24 25" fill="none" xmlns="http://www.w3.org/2000/svg">
<g id="Upload">
<path id="Vector" d="M23.25 15.5298C23.1562 15.5298 23.0625 15.5493 22.9688 15.5884C22.875 15.6274 22.7891 15.6782 22.7109 15.7407C22.6484 15.8188 22.5977 15.9009 22.5586 15.9868C22.5195 16.0728 22.5 16.1704 22.5 16.2798V20.0298C22.5 20.2329 22.4609 20.4243 22.3828 20.604C22.3047 20.7837 22.1953 20.9438 22.0547 21.0845C21.9141 21.2251 21.7539 21.3345 21.5742 21.4126C21.3945 21.4907 21.2031 21.5298 21 21.5298H3C2.79688 21.5298 2.60547 21.4907 2.42578 21.4126C2.24609 21.3345 2.08594 21.2251 1.94531 21.0845C1.80469 20.9438 1.69531 20.7837 1.61719 20.604C1.53906 20.4243 1.5 20.2329 1.5 20.0298V16.2798C1.5 16.1704 1.48047 16.0728 1.44141 15.9868C1.40234 15.9009 1.35156 15.8188 1.28906 15.7407C1.21094 15.6782 1.125 15.6274 1.03125 15.5884C0.9375 15.5493 0.84375 15.5298 0.75 15.5298C0.65625 15.5298 0.5625 15.5493 0.46875 15.5884C0.375 15.6274 0.289062 15.6782 0.210938 15.7407C0.148438 15.8188 0.0976562 15.9009 0.0585938 15.9868C0.0195312 16.0728 0 16.1704 0 16.2798V20.0298C0 20.4204 0.0742188 20.7993 0.222656 21.1665C0.371094 21.5337 0.585938 21.8579 0.867188 22.1392C1.14844 22.4204 1.47656 22.6392 1.85156 22.7954C2.22656 22.9517 2.60938 23.0298 3 23.0298H21C21.3906 23.0298 21.7734 22.9517 22.1484 22.7954C22.5234 22.6392 22.8516 22.4204 23.1328 22.1392C23.4141 21.8579 23.6289 21.5337 23.7773 21.1665C23.9258 20.7993 24 20.4204 24 20.0298V16.2798C24 16.1704 23.9805 16.0728 23.9414 15.9868C23.9023 15.9009 23.8516 15.8188 23.7891 15.7407C23.7109 15.6782 23.625 15.6274 23.5312 15.5884C23.4375 15.5493 23.3438 15.5298 23.25 15.5298Z" fill="#074C31"/>
<path id="Vector_2" d="M12.5391 2.38135C12.4922 2.3501 12.4492 2.31885 12.4102 2.2876C12.3711 2.25635 12.3281 2.23291 12.2812 2.21729C12.2344 2.20166 12.1875 2.18994 12.1406 2.18213C12.0938 2.17432 12.0469 2.17041 12 2.17041C11.9531 2.17041 11.9062 2.17432 11.8594 2.18213C11.8125 2.18994 11.7656 2.20166 11.7188 2.21729C11.6719 2.23291 11.6289 2.25635 11.5898 2.2876C11.5508 2.31885 11.5078 2.3501 11.4609 2.38135L6.96094 6.88135C6.89844 6.95947 6.84766 7.0415 6.80859 7.12744C6.76953 7.21338 6.75 7.31104 6.75 7.42041C6.75 7.51416 6.76953 7.60791 6.80859 7.70166C6.84766 7.79541 6.89844 7.87354 6.96094 7.93604C7.03906 8.01416 7.125 8.07275 7.21875 8.11182C7.3125 8.15088 7.40625 8.17041 7.5 8.17041C7.59375 8.17041 7.6875 8.15088 7.78125 8.11182C7.875 8.07275 7.96094 8.01416 8.03906 7.93604L11.25 4.7251V17.9204C11.25 18.0142 11.2695 18.1079 11.3086 18.2017C11.3477 18.2954 11.3984 18.3735 11.4609 18.436C11.5391 18.5142 11.625 18.5728 11.7188 18.6118C11.8125 18.6509 11.9062 18.6704 12 18.6704C12.0938 18.6704 12.1875 18.6509 12.2812 18.6118C12.375 18.5728 12.4609 18.5142 12.5391 18.436C12.6016 18.3735 12.6523 18.2954 12.6914 18.2017C12.7305 18.1079 12.75 18.0142 12.75 17.9204V4.7251L15.9609 7.93604C16.0391 8.01416 16.125 8.07275 16.2188 8.11182C16.3125 8.15088 16.4062 8.17041 16.5 8.17041C16.5938 8.17041 16.6875 8.15088 16.7812 8.11182C16.875 8.07275 16.9609 8.01416 17.0391 7.93604C17.1016 7.87354 17.1523 7.79541 17.1914 7.70166C17.2305 7.60791 17.25 7.51416 17.25 7.42041C17.25 7.31104 17.2305 7.21338 17.1914 7.12744C17.1523 7.0415 17.1016 6.95947 17.0391 6.88135L12.5391 2.38135Z" fill="#074C31"/>
</g>
</svg>
