<svg width="25" height="24" viewBox="0 0 25 24" fill="none" xmlns="http://www.w3.org/2000/svg">
<g id="Huge-icon/business/outline/briefcase 04">
<path id="Vector" d="M8.74023 6V5C8.74023 3.34315 10.0834 2 11.7402 2H13.7402C15.3971 2 16.7402 3.34315 16.7402 5V6M2.74023 10.3475C2.74023 10.3475 5.85828 12.4244 10.7179 12.9109M22.7402 10.3475C22.7402 10.3475 19.6222 12.4244 14.7626 12.9109M6.74023 22H18.7402C20.9494 22 22.7402 20.2091 22.7402 18V10C22.7402 7.79086 20.9494 6 18.7402 6H6.74023C4.5311 6 2.74023 7.79086 2.74023 10V18C2.74023 20.2091 4.5311 22 6.74023 22Z" stroke="#A1C038" stroke-width="1.5" stroke-linecap="round"/>
<path id="Vector_2" d="M14.7402 12.1599V13.1599C14.7402 13.1699 14.7402 13.1699 14.7402 13.1799C14.7402 14.2699 14.7302 15.1599 12.7402 15.1599C10.7602 15.1599 10.7402 14.2799 10.7402 13.1899V12.1599C10.7402 11.1599 10.7402 11.1599 11.7402 11.1599H13.7402C14.7402 11.1599 14.7402 11.1599 14.7402 12.1599Z" stroke="#074C31" stroke-width="1.5" stroke-miterlimit="10" stroke-linecap="round" stroke-linejoin="round"/>
</g>
</svg>
