<svg width="25" height="24" viewBox="0 0 25 24" fill="none" xmlns="http://www.w3.org/2000/svg">
<g id="Vote">
<g id="Vector">
<path d="M20.7402 8C21.8448 8 22.7402 8.89543 22.7402 10V20C22.7402 21.1046 21.8448 22 20.7402 22C19.6357 22 18.7402 21.1046 18.7402 20V10C18.7402 8.89543 19.6357 8 20.7402 8Z" stroke="#A1C038" stroke-width="1.5" stroke-linecap="round" stroke-linejoin="round"/>
<path d="M4.74023 16C5.8448 16 6.74023 16.8954 6.74023 18L6.74023 20C6.74023 21.1046 5.8448 22 4.74023 22C3.63566 22 2.74023 21.1046 2.74023 20L2.74023 18C2.74023 16.8954 3.63566 16 4.74023 16Z" stroke="#A1C038" stroke-width="1.5" stroke-linecap="round" stroke-linejoin="round"/>
<path d="M12.7402 12C13.8448 12 14.7402 12.8954 14.7402 14V20C14.7402 21.1046 13.8448 22 12.7402 22C11.6357 22 10.7402 21.1046 10.7402 20V14C10.7402 12.8954 11.6357 12 12.7402 12Z" stroke="#A1C038" stroke-width="1.5" stroke-linecap="round" stroke-linejoin="round"/>
</g>
<path id="Vector_2" d="M19.7402 2H21.7402C22.2925 2 22.7402 2.44772 22.7402 3V5M21.7402 3C13.7987 9.39136 9.68236 11.1129 2.74023 12" stroke="#074C31" stroke-width="1.5" stroke-linecap="round" stroke-linejoin="round"/>
</g>
</svg>
